<svg width="256" height="130" viewBox="0 0 230 77" fill="none" xmlns="http://www.w3.org/2000/svg">
    <path d="M221.265 33.3905H230V43.6096H221.265V33.3905V33.3905ZM204.052 46.6016H212.787V30.3985H204.052V46.6016V46.6016ZM187.128 54.9825H195.863V22.0176H187.128V54.9825V54.9825ZM171.04 61.4496H179.775V15.8521H171.04V61.4386V61.4496ZM153.816 50.3144H162.551V26.6857H153.816V50.3144ZM136.318 68.1935H145.053V7.79539H136.291V68.1935H136.318ZM119.1 76.8534H127.835V0.146729H119.1V76.8534ZM102.176 65.0112H110.911V11.9887H102.176V65.0114V65.0112ZM84.668 49.9538H93.403V27.6045H84.668V49.9538ZM67.7445 44.6261H76.4795V32.3543H67.7445V44.6463V44.6261ZM50.8205 51.1914H59.5555V25.8H50.8205V51.1996V51.1914ZM34.1695 63.4829H42.9045V12.0641H34.17V63.4919L34.1695 63.4829ZM17.246 55.6275H25.981V20.931H17.246V55.6362V55.6275ZM0 46.6016H8.735V30.3985H0V46.6016Z" fill="white" fill-opacity="0.5"/>
</svg>