<svg width="154" height="149" viewBox="0 0 154 149" fill="none" xmlns="http://www.w3.org/2000/svg">
    <path d="M139.176 81.5808L139.622 81.7003C139.694 81.7139 139.769 81.7087 139.838 81.6853C139.908 81.6619 139.971 81.621 140.02 81.5665C140.069 81.512 140.104 81.4457 140.12 81.3741C140.136 81.3025 140.134 81.2278 140.113 81.1574C140.163 81.1075 140.2 81.0458 140.219 80.9779C140.238 80.91 140.24 80.8383 140.224 80.7696C140.207 80.7009 140.174 80.6374 140.126 80.5854C140.078 80.5333 140.018 80.4944 139.951 80.4722C137.189 79.3919 134.36 78.491 131.482 77.7752C131.393 77.742 131.294 77.7447 131.207 77.7828C131.12 77.8209 131.051 77.8913 131.015 77.9793L130.995 78.056C130.961 78.142 130.959 78.2374 130.991 78.3244C131.022 78.4115 131.084 78.4843 131.165 78.5292L130.012 78.2204C129.917 78.2053 129.819 78.2226 129.735 78.2695C129.651 78.3163 129.586 78.39 129.548 78.4787C129.511 78.5675 129.505 78.6661 129.531 78.7587C129.557 78.8514 129.613 78.9328 129.69 78.9898L129.813 79.0227C129.797 79.0752 129.792 79.1304 129.798 79.185C129.804 79.2395 129.821 79.2923 129.849 79.3398C129.876 79.3874 129.913 79.4288 129.958 79.4613C130.002 79.4938 130.052 79.5169 130.106 79.5289L133.057 80.3196C133.672 80.4843 134.271 80.6449 134.87 80.8055L138.682 81.8268C138.73 81.8443 138.782 81.8518 138.834 81.8488C138.885 81.8458 138.936 81.8324 138.982 81.8095C139.028 81.7865 139.069 81.7543 139.102 81.715C139.136 81.6758 139.161 81.6301 139.176 81.5808Z" fill="#101418"/>
    <path d="M126.069 114.33L125.098 113.955C122.917 112.094 120.372 110.706 117.625 109.88C117.581 109.859 117.535 109.846 117.486 109.843L117.317 109.797C117.243 109.763 117.161 109.751 117.081 109.762C117 109.773 116.924 109.806 116.862 109.858C116.799 109.91 116.753 109.979 116.729 110.057C116.704 110.134 116.702 110.217 116.723 110.296C116.678 110.339 116.644 110.391 116.623 110.449C116.601 110.507 116.593 110.569 116.598 110.63C116.604 110.692 116.623 110.751 116.655 110.804C116.687 110.857 116.73 110.903 116.781 110.937C117.45 111.33 118.215 111.732 118.835 112.063C120.759 113.883 123.089 115.218 125.633 115.957C125.722 115.978 125.816 115.968 125.901 115.931C125.985 115.894 126.055 115.831 126.1 115.751C126.146 115.671 126.164 115.578 126.153 115.487C126.142 115.396 126.101 115.31 126.038 115.243L125.905 115.126C126.001 115.127 126.095 115.095 126.17 115.035C126.245 114.975 126.297 114.89 126.316 114.796C126.336 114.702 126.322 114.603 126.276 114.519C126.231 114.434 126.158 114.367 126.069 114.33Z" fill="#101418"/>
    <path d="M92.7683 134.101C92.7849 134.21 92.8442 134.309 92.9333 134.374C93.0223 134.44 93.1337 134.467 93.243 134.451C93.3523 134.434 93.4505 134.375 93.516 134.286C93.5815 134.197 93.609 134.086 93.5924 133.977C93.5755 132.195 93.2881 130.44 93.2753 128.643C93.2734 128.577 93.2552 128.513 93.2222 128.456C93.1893 128.399 93.1427 128.351 93.0867 128.317C93.0306 128.282 92.9669 128.262 92.9011 128.258C92.8354 128.254 92.7697 128.267 92.7099 128.294L92.421 127.098C92.3336 126.318 92.2154 125.529 92.1013 124.725C92.1013 124.725 92.0091 124.701 91.9918 124.581C91.9278 124.54 91.8526 124.52 91.7766 124.523C91.5615 124.466 91.3225 124.681 91.353 124.936C91.3835 125.191 91.2707 125.243 91.3218 125.421C91.2611 125.451 91.2108 125.498 91.1774 125.557C91.1441 125.615 91.1293 125.683 91.135 125.75C91.1346 126.243 91.169 126.73 91.1839 127.227C91.1988 127.725 91.1741 127.817 91.1616 128.11C91.0914 130.266 91.1679 132.425 91.3905 134.571C91.4279 135.108 92.2498 135.114 92.2472 134.57L92.2842 134.432C92.3141 134.381 92.3297 134.323 92.3295 134.263C92.3706 134.11 92.4118 133.956 92.4529 133.803C92.5057 133.825 92.5627 133.836 92.62 133.834C92.6773 133.833 92.7336 133.819 92.7849 133.793L92.7683 134.101Z" fill="#101418"/>
    <path d="M67.1659 123.358C67.1042 123.589 67.0425 123.819 66.8691 124.036C66.8317 123.941 66.7607 123.863 66.6696 123.818C66.5784 123.772 66.4737 123.761 66.3753 123.788C66.3361 123.737 66.2846 123.697 66.2257 123.672C66.1668 123.646 66.1024 123.636 66.0384 123.642C65.9744 123.647 65.913 123.669 65.8597 123.705C65.8064 123.741 65.7631 123.79 65.7337 123.847C65.551 124.16 65.3991 124.481 65.2317 124.798C65.1634 124.811 65.1001 124.843 65.0494 124.891C64.9987 124.938 64.9627 124.999 64.9456 125.067C64.8633 125.374 64.781 125.681 64.7029 125.973C63.2906 127.821 62.553 130.096 62.6125 132.421C62.6136 132.515 62.6453 132.606 62.7028 132.68C62.7603 132.754 62.8405 132.807 62.931 132.831C63.0216 132.855 63.1176 132.849 63.2044 132.814C63.2912 132.779 63.364 132.716 63.4117 132.635C63.4446 132.513 63.4817 132.375 63.5146 132.252C63.5665 132.611 64.1033 132.821 64.2676 132.453C64.2686 132.416 64.2785 132.379 64.2964 132.346C64.354 132.131 64.4075 131.932 64.461 131.732C64.4869 131.662 64.5062 131.59 64.5185 131.517C64.5717 131.522 64.6253 131.513 64.6742 131.492C64.7231 131.47 64.7658 131.437 64.7984 131.395C65.7409 130.355 66.3194 129.038 66.4467 127.641C66.6318 126.95 66.9664 126.316 67.1823 125.633C67.2028 125.557 67.2234 125.48 67.2481 125.388C67.2803 125.347 67.3039 125.3 67.3173 125.25C67.3307 125.2 67.3338 125.147 67.3262 125.096C67.4537 124.62 67.5854 124.129 67.7129 123.653C67.8404 123.177 67.3661 122.918 67.1659 123.358Z" fill="#101418"/>
    <path d="M16.976 78.1069C16.8803 78.1175 16.791 78.1599 16.7224 78.2273C16.6537 78.2947 16.6098 78.3832 16.5975 78.4785C16.5853 78.5739 16.6054 78.6706 16.6548 78.7532C16.7041 78.8358 16.7798 78.8995 16.8697 78.934L17.131 79.004C18.0039 80.3567 19.8844 80.5315 21.7417 80.2394C23.2424 80.8428 24.8564 81.1124 26.4716 81.0297C26.5654 81.0286 26.6562 80.997 26.7302 80.9396C26.8042 80.8822 26.8574 80.8022 26.8816 80.7118C26.9059 80.6213 26.8998 80.5254 26.8644 80.4387C26.829 80.352 26.7662 80.2792 26.6855 80.2314L26.5626 80.1985C26.5844 80.1132 26.5773 80.0231 26.5423 79.9422C26.5073 79.8614 26.4465 79.7944 26.3693 79.7518L26.2463 79.7189C26.2627 79.6347 26.2502 79.5475 26.2108 79.4713C26.1715 79.3951 26.1076 79.3343 26.0294 79.2988L26.1729 79.255C26.2612 79.2289 26.3388 79.1752 26.3941 79.1017C26.4495 79.0282 26.4797 78.9388 26.4804 78.8468C26.4811 78.7548 26.4521 78.665 26.3978 78.5907C26.3435 78.5164 26.2667 78.4614 26.1788 78.4339C23.2939 77.5024 20.2886 76.9965 17.2579 76.932C16.8756 76.9448 16.6496 77.5423 17.044 77.7303L17.7724 78.0242C17.6866 78.0459 17.61 78.0946 17.554 78.1631L16.976 78.1069Z" fill="#101418"/>
    <path d="M20.662 41.9111L21.5073 42.1376C21.4848 42.1869 21.4726 42.2403 21.4715 42.2945C21.4704 42.3486 21.4804 42.4025 21.5009 42.4526C21.5214 42.5028 21.552 42.5483 21.5907 42.5863C21.6294 42.6242 21.6755 42.6539 21.7261 42.6734C21.9105 42.7228 22.0857 42.8684 22.2578 42.9639C22.2541 43.0266 22.266 43.0892 22.2923 43.1461C22.3187 43.2031 22.3587 43.2527 22.4089 43.2906C22.459 43.3284 22.5177 43.3533 22.5798 43.3631C22.6419 43.3729 22.7054 43.3672 22.7647 43.3465C22.7647 43.3465 22.8569 43.3713 22.903 43.3836C24.7041 44.2707 26.5962 44.9597 28.546 45.4386C28.6411 45.4536 28.7385 45.4364 28.8225 45.3895C28.9065 45.3427 28.9724 45.269 29.0095 45.1802C29.0465 45.0915 29.0527 44.9929 29.0269 44.9002C29.0012 44.8076 28.945 44.7262 28.8675 44.6692L29.5744 44.8586C29.6558 44.8769 29.7408 44.8693 29.8176 44.8367C29.8943 44.8041 29.9588 44.7482 30.002 44.677L30.6076 44.6912C30.6595 44.6977 30.7122 44.6931 30.762 44.6775C30.8119 44.662 30.8579 44.636 30.8969 44.6012C30.9358 44.5665 30.9669 44.5238 30.988 44.476C31.009 44.4282 31.0196 44.3765 31.0189 44.3243C31.0381 44.2747 31.0519 44.2233 31.0601 44.1708C31.1193 44.1244 31.1642 44.0622 31.1894 43.9914C31.2147 43.9206 31.2193 43.844 31.2027 43.7707C31.1861 43.6973 31.1491 43.6301 31.0958 43.577C31.0426 43.5238 30.9753 43.4868 30.9018 43.4703L28.2891 42.7702C27.5172 42.4481 26.7057 42.2307 25.8762 42.1237L25.5073 42.0248C25.4658 41.9929 25.4177 41.9706 25.3664 41.9598C25.3152 41.9489 25.2621 41.9496 25.2112 41.9619C23.7726 41.6752 22.3093 41.4805 20.8912 41.117C20.7975 41.1162 20.706 41.146 20.6308 41.202C20.5556 41.2579 20.5009 41.337 20.4749 41.427C20.4489 41.517 20.4531 41.613 20.4869 41.7004C20.5207 41.7879 20.5822 41.8619 20.662 41.9111Z" fill="#101418"/>
    <path d="M53.4029 11.1971C53.3021 10.1409 52.9496 9.12395 52.3749 8.23143C51.8001 7.33892 51.0198 6.59677 50.0993 6.06708C49.999 6.00952 49.8803 5.99316 49.7682 6.02146C49.6561 6.04976 49.5594 6.1205 49.4986 6.21873L49.1365 5.48004C49.0825 5.39241 48.9988 5.32706 48.9006 5.2959C48.8024 5.26473 48.6963 5.26983 48.6017 5.31026C48.507 5.35069 48.43 5.42376 48.3848 5.51616C48.3396 5.60856 48.3291 5.71414 48.3552 5.81366C48.4758 6.22438 48.6353 6.61262 48.7907 7.01623C48.7138 7.00963 48.6365 7.02389 48.5669 7.05751C48.4974 7.09112 48.4383 7.14285 48.3957 7.20724C48.3532 7.27162 48.3288 7.34629 48.3252 7.42337C48.3216 7.50045 48.3388 7.5771 48.3751 7.64524L48.5675 7.91069L48.8879 8.37494C48.8105 8.35957 48.7304 8.36661 48.6569 8.39523C48.5835 8.42386 48.5197 8.47288 48.4732 8.53651C48.4268 8.60014 48.3995 8.67573 48.3946 8.75437C48.3897 8.83301 48.4074 8.91142 48.4457 8.98036C48.6861 9.37385 48.9502 9.74077 49.2143 10.1077C50.0137 11.2432 50.8561 12.3409 51.7181 13.4274C51.7799 13.4733 51.8568 13.4939 51.9332 13.4851C51.9811 13.4967 52.0308 13.4976 52.079 13.4878C52.1272 13.4779 52.1726 13.4576 52.212 13.4282C52.212 13.4282 52.2326 13.3514 52.2408 13.3207C52.3107 13.2694 52.361 13.1959 52.3835 13.1122C52.4059 13.0285 52.3991 12.9396 52.3642 12.8602C52.3233 12.7927 52.2871 12.7226 52.2558 12.6502C52.3148 12.644 52.3717 12.6248 52.4223 12.5938C52.4729 12.5629 52.5159 12.521 52.5481 12.4713C52.5804 12.4216 52.6011 12.3653 52.6088 12.3065C52.6165 12.2477 52.6109 12.188 52.5924 12.1316C52.671 12.0803 52.7279 12.0018 52.7521 11.9112C52.7764 11.8206 52.7664 11.7241 52.724 11.6404C52.6186 11.4805 52.5522 11.2982 52.4621 11.1425L52.6167 11.3648C52.8264 11.7501 53.4219 11.6793 53.4029 11.1971Z" fill="#101418"/>
    <path d="M137.65 54.6332L138.08 54.5017C138.174 54.4701 138.254 54.407 138.307 54.3231C138.36 54.2392 138.382 54.1397 138.369 54.0415C138.357 53.9432 138.311 53.8523 138.239 53.7841C138.167 53.7159 138.073 53.6746 137.975 53.6672C136.17 53.5539 134.359 53.7061 132.599 54.1189C130.885 54.1422 129.178 54.3352 127.503 54.6948C127.427 54.7202 127.36 54.7662 127.309 54.8277C127.258 54.8892 127.225 54.9637 127.214 55.0428C127.203 55.122 127.214 55.2027 127.247 55.2757C127.279 55.3488 127.332 55.4113 127.398 55.4563C127.105 55.6248 127.027 56.1632 127.454 56.2284L127.654 56.2819C127.721 56.3158 127.794 56.3355 127.869 56.3396C127.874 56.3847 127.887 56.4284 127.909 56.4682C127.93 56.508 127.96 56.543 127.995 56.571C128.031 56.599 128.072 56.6195 128.116 56.6312C128.16 56.6429 128.205 56.6456 128.25 56.6391C128.803 56.6061 129.348 56.5383 129.939 56.4829C131.679 56.4397 133.407 56.1844 135.085 55.7228C135.676 55.6464 136.27 55.6025 136.866 55.5913C136.928 55.5914 136.988 55.5772 137.044 55.5498C137.099 55.5224 137.147 55.4826 137.184 55.4336C137.221 55.3845 137.246 55.3275 137.257 55.267C137.269 55.2065 137.266 55.1443 137.249 55.0851C137.306 55.0862 137.363 55.0748 137.416 55.0517C137.469 55.0287 137.516 54.9945 137.554 54.9515C137.592 54.9086 137.62 54.8579 137.637 54.8029C137.653 54.748 137.658 54.6901 137.65 54.6332Z" fill="#101418"/>
</svg>