<svg width="160" height="173" viewBox="0 0 160 173" fill="none" xmlns="http://www.w3.org/2000/svg">
    <g clip-path="url(#clip0_9_444)">
    <path d="M50.8784 108.493C50.1469 109.01 49.4055 109.502 48.6542 109.97C46.079 111.4 43.6028 113.001 41.2423 114.762C41.163 114.841 41.1061 114.94 41.0773 115.049C41.0485 115.157 41.0489 115.271 41.0785 115.379C41.108 115.487 41.1657 115.586 41.2456 115.664C41.3255 115.743 41.4248 115.799 41.5334 115.827C44.1308 116.523 46.7281 117.219 49.3255 117.915C49.424 117.946 49.529 117.949 49.6289 117.923C49.7288 117.898 49.8197 117.845 49.8913 117.771C52.4727 116.091 54.8785 114.156 57.0725 111.995C64.0942 118.187 74.0905 121.639 82.8295 120.377C83.7889 120.24 84.7145 120.043 85.6483 119.816L85.6236 119.908C87.5918 122.779 89.0217 125.983 89.8436 129.364C89.8713 129.474 89.9283 129.574 90.0086 129.653C90.0889 129.733 90.1894 129.789 90.2993 129.815C92.654 130.249 94.9593 130.867 97.3108 131.497C97.4021 131.52 97.4974 131.521 97.5895 131.502C97.6815 131.482 97.7679 131.442 97.8421 131.384C97.9163 131.326 97.9764 131.253 98.0178 131.168C98.0592 131.084 98.0808 130.991 98.081 130.897C98.1212 130.815 98.1415 130.724 98.1403 130.632C98.1392 130.54 98.1165 130.45 98.0742 130.369C96.1463 126.068 94.6902 121.236 91.5964 117.659C104.193 111.59 112.276 97.2868 107.502 83.2569C102.062 67.2879 84.3849 58.0761 68.404 63.1886C53.1059 68.0891 43.5222 84.4912 49.0782 99.9648C49.8638 102.568 51.0908 105.017 52.7058 107.205C52.6873 107.238 52.6774 107.275 52.677 107.313C52.677 107.313 51.2609 108.233 50.8784 108.493ZM92.6702 121.336L92.5319 121.299C92.483 121.236 92.4209 121.185 92.3499 121.149C92.2789 121.113 92.2008 121.093 92.1212 121.09C92.0417 121.088 91.9625 121.103 91.8895 121.134C91.8164 121.166 91.7513 121.213 91.6987 121.273C91.537 121.249 91.3721 121.281 91.2303 121.361C91.1188 121.316 90.9973 121.302 90.8784 121.32C90.7595 121.338 90.6477 121.387 90.5547 121.464C90.4618 121.54 90.3912 121.64 90.3503 121.753C90.3095 121.865 90.2999 121.987 90.3226 122.105C90.5638 122.793 90.8585 123.461 91.2042 124.102C91.6622 125.344 92.0547 126.584 92.4081 127.847C92.4455 127.968 92.5182 128.075 92.6169 128.154C92.7155 128.234 92.8357 128.282 92.962 128.293C93.0882 128.304 93.2148 128.277 93.3256 128.215C93.4363 128.154 93.5261 128.061 93.5835 127.948C93.665 127.954 93.7469 127.942 93.8234 127.913C93.9277 127.972 94.0457 128.001 94.1653 127.999C94.2848 127.996 94.4014 127.961 94.5028 127.898C94.4782 127.99 94.5652 128.096 94.5907 128.185C94.7561 128.92 95.7904 128.687 95.8166 128.036C96.0947 128.719 96.3616 129.383 96.648 130.036C94.7011 129.679 91.1833 129.098 90.9535 128.296C90.1318 125.14 88.7713 122.148 86.9317 119.453C88.1351 119.099 89.3161 118.674 90.4686 118.179C91.3308 119.17 92.0853 120.249 92.7193 121.398L92.6702 121.336ZM50.2766 99.6114C44.9525 84.8087 53.7197 70.4089 67.6637 64.7836C83.4612 58.388 100.414 68.4587 106.266 83.5673C112.476 99.6111 99.0649 115.975 83.4815 118.989C70.5652 121.517 53.9556 112.377 50.2643 99.6574L50.2766 99.6114ZM53.4223 108.22C54.2578 109.273 55.1632 110.269 56.1324 111.2C54.0449 113.24 51.7616 115.069 49.3153 116.662C47.2251 116.102 45.1503 115.546 43.0602 114.986C45.2835 113.328 47.7545 112.098 50.072 110.58C51.2917 109.95 52.419 109.156 53.4223 108.22Z" fill="#101418"/>
    <path d="M102.299 85.6467C101.415 79.6019 97.5092 74.6891 92.8187 71.0466C86.1874 65.9792 78.6393 63.8415 70.5564 66.0357C57.6033 70.7913 46.8812 84.6179 52.3514 98.7523C57.2101 111.357 72.6398 118.568 85.4546 114.944C97.6021 111.535 104.079 97.4433 102.299 85.6467ZM53.9824 99.3045C47.2561 85.9852 58.7563 71.7748 70.9069 67.2484C83.6918 63.7969 98.5511 72.8294 101.104 85.9848C103.293 97.3643 96.0743 110.106 85.1349 113.739C73.0587 117.743 59.4997 110.128 53.9824 99.3045Z" fill="#101418"/>
    <path d="M77.4274 93.0167C77.0365 92.6025 76.5635 92.2741 76.0386 92.0523C76.7818 89.5861 80.8568 77.9435 78.2441 77.2435C75.1703 76.4199 72.8657 89.7543 72.6046 91.7738C72.0451 91.9939 71.564 92.3758 71.2231 92.8706C70.8822 93.3655 70.6968 93.9507 70.6908 94.5516C70.674 94.9129 70.7283 95.274 70.8507 95.6145C69.4519 97.8228 67.1948 99.4226 65.6771 101.583C65.0839 102.444 64.107 105.045 65.9012 105.295C67.4834 105.538 68.9948 103.525 69.9169 102.604C71.3253 101.161 72.5956 99.59 73.711 97.911L73.957 97.9769C74.5779 98.0888 75.218 98.0139 75.7959 97.7615C76.3739 97.5092 76.8636 97.0909 77.2029 96.5597C79.8924 97.2804 82.5142 98.131 85.2408 98.7135C86.7777 99.1253 89.6825 99.9036 91.0159 98.6157C93.6869 96.0243 78.6007 93.2488 77.4274 93.0167ZM75.4935 85.1112C75.8637 83.7297 76.2298 82.3635 76.8069 81.0703C77.0106 80.5173 77.2437 79.9757 77.5052 79.4476C77.5546 79.2634 77.7003 79.0885 77.7957 78.9167C77.6899 81.1349 77.2744 83.3273 76.5611 85.4302C76.0017 87.5179 75.4464 89.5902 74.887 91.6779L74.6565 91.6161L73.9627 91.5619C74.3251 89.3792 74.8366 87.224 75.4935 85.1112ZM66.702 103.782C65.8591 104.346 66.1909 103.415 66.4394 102.856C66.9732 101.899 67.6457 101.026 68.4351 100.265C69.5616 99.1478 70.6296 97.9732 71.6347 96.7459C71.9022 97.0158 72.2063 97.2468 72.538 97.4322C71.0176 99.9027 69.0364 102.058 66.702 103.782ZM74.3598 96.7193C73.8857 96.7024 73.4256 96.5544 73.0306 96.2917C72.6357 96.029 72.3214 95.662 72.1229 95.2314C72.0048 94.9096 71.9797 94.5612 72.0503 94.2259C72.121 93.8906 72.2846 93.5819 72.5225 93.3351C72.7603 93.0884 73.0629 92.9134 73.3957 92.8302C73.7284 92.7471 74.0779 92.759 74.4043 92.8648C75.3972 93.0321 76.9536 93.4327 76.7659 94.748C76.6945 95.3222 76.405 95.847 75.9572 96.2139C75.5094 96.5807 74.9376 96.7617 74.3598 96.7193ZM88.9504 97.9635C85.2292 98.0194 81.3885 96.4309 77.8281 95.3946L77.8569 95.2871C77.9594 95.0094 78.0049 94.7139 77.9909 94.4181C80.1375 94.8288 82.2606 95.266 84.398 95.7729C85.6429 96.1065 86.8878 96.4401 88.1274 96.8545C88.8221 97.09 90.7726 97.9253 88.9504 97.9635Z" fill="#101418"/>
    <path d="M58.7324 88.4022C58.6312 88.3879 58.5281 88.4064 58.4383 88.455C57.6326 88.634 56.6134 89.1178 56.379 89.9928C56.3032 90.2787 56.2849 90.5769 56.3251 90.8701C56.3653 91.1632 56.4632 91.4455 56.6132 91.7008C56.9379 92.0629 57.3799 92.2992 57.8616 92.3681C58.3432 92.4369 58.8337 92.334 59.2467 92.0774C59.6873 91.9312 60.087 91.6829 60.4131 91.3527C60.7391 91.0226 60.9824 90.6201 61.1228 90.178C61.3424 88.8054 59.75 88.4775 58.7324 88.4022ZM59.009 90.8126C58.822 90.939 58.6118 91.0273 58.3906 91.0725C58.1693 91.1177 57.9413 91.1188 57.7195 91.0759C57.7195 91.0759 57.5957 90.8617 57.5897 90.7614C57.5053 90.0313 58.1921 89.804 58.7887 89.6677C59.1013 89.7035 59.4069 89.7854 59.6955 89.9107C59.8799 89.9601 59.8706 90.0563 59.8799 89.9601C59.8703 90.3031 59.3248 90.6176 58.9936 90.8085L59.009 90.8126Z" fill="#101418"/>
    <path d="M80.6908 73.5225C80.7839 73.454 80.8509 73.3559 80.8807 73.2443C81.1792 72.867 81.3614 72.4109 81.405 71.9318C81.4485 71.4527 81.3516 70.9712 81.126 70.546C80.8193 70.0937 80.3482 69.7786 79.8129 69.6676C78.7462 69.5299 77.9716 70.3918 77.7249 71.3128C77.5262 71.7244 77.4275 72.1771 77.4367 72.634C77.4459 73.091 77.5627 73.5395 77.7778 73.943C78.566 75.0591 79.9001 74.1991 80.6908 73.5225ZM79.5105 70.9193C79.5105 70.9193 79.6795 70.9646 79.8179 71.0016C80.456 71.3865 80.0884 72.1436 79.7754 72.6355C79.5264 72.8677 79.2369 73.0522 78.9212 73.1799C78.8778 73.1821 78.8348 73.1706 78.7983 73.147C78.6668 72.7581 78.6751 72.3356 78.8219 71.9523C78.9098 71.5322 79.1565 71.1623 79.5105 70.9193Z" fill="#101418"/>
    <path d="M94.5778 100.261C94.6449 100.347 94.7392 100.407 94.8451 100.432C95.2212 100.734 95.6782 100.918 96.1587 100.962C96.6393 101.006 97.122 100.907 97.5464 100.678C97.7747 100.531 97.9705 100.339 98.1216 100.114C98.2727 99.888 98.3759 99.634 98.4248 99.367C98.5733 98.3209 97.6742 97.6193 96.7921 97.2842C96.3796 97.0819 95.9254 96.9794 95.466 96.9849C95.0067 96.9905 94.5551 97.1039 94.1479 97.3161C93.0424 98.1222 93.9001 99.4708 94.5778 100.261ZM96.0758 98.3592C96.2993 98.4 96.5125 98.4852 96.7026 98.6096C96.8928 98.734 97.0561 98.8952 97.183 99.0836C97.183 99.0836 97.1377 99.2525 97.1048 99.3753C96.7005 100.024 95.9578 99.6602 95.4692 99.3319C95.245 99.0861 95.0643 98.8041 94.935 98.4977C94.9393 98.4553 94.9504 98.4138 94.9679 98.3749C95.325 98.2464 95.715 98.2408 96.0758 98.3592Z" fill="#101418"/>
    <path d="M70.7276 107.937C70.641 108.004 70.5807 108.098 70.5573 108.204C69.7875 109.479 69.8063 111.376 71.5481 111.76C72.6086 112.045 73.3976 111.006 73.7325 110.125C73.9341 109.715 74.0358 109.264 74.0293 108.807C74.0227 108.351 73.9082 107.902 73.6949 107.499C72.8678 106.405 71.5184 107.261 70.7276 107.937ZM71.9274 110.529C71.8352 110.505 71.7276 110.476 71.5739 110.435C71.0178 109.99 71.3218 109.347 71.6625 108.813C71.9052 108.585 72.1883 108.404 72.4972 108.28C72.6992 108.202 72.6295 108.217 72.6509 108.321C72.6723 108.426 72.6859 109.235 72.5913 109.589C72.4967 109.942 72.2729 110.408 71.9274 110.529Z" fill="#101418"/>
    <path d="M64.009 78.2993C64.3913 78.2865 64.7946 78.8717 64.9675 79.1484C65.4117 79.8268 66.5027 79.1978 66.0626 78.504C65.8634 78.111 65.5721 77.7717 65.2135 77.5152C64.8549 77.2587 64.4396 77.0925 64.003 77.0308C63.1882 77.0593 63.1943 78.3278 64.009 78.2993Z" fill="#101418"/>
    <path d="M60.6558 98.8059C60.3106 99.0392 59.9297 99.215 59.528 99.3263C58.7673 99.5832 59.1167 100.861 59.8784 100.539C60.4795 100.367 61.0422 100.082 61.5364 99.6999C62.1968 99.2023 61.2855 98.3001 60.6558 98.8059Z" fill="#101418"/>
    <path d="M103.408 92.5742C103.487 93.3852 104.833 93.4005 104.677 92.569C104.661 92.4577 104.653 92.3455 104.652 92.2331C104.749 92.2969 104.862 92.3348 104.978 92.3432C105.094 92.3515 105.21 92.3301 105.316 92.2809C105.422 92.2318 105.513 92.1565 105.581 92.0622C105.649 91.968 105.692 91.8578 105.706 91.7423C105.663 89.7096 105.427 87.6855 105.003 85.6968C105.987 87.8032 105.788 90.2671 106.032 92.5536C106.131 93.3533 107.458 93.3799 107.302 92.5483C107.005 89.9679 107.232 87.2153 105.97 84.8536C105.914 84.7557 105.833 84.6748 105.734 84.6197C105.636 84.5647 105.524 84.5375 105.411 84.5411C105.299 84.5448 105.189 84.5791 105.094 84.6403C104.999 84.7016 104.923 84.7875 104.874 84.8888C104.811 84.7721 104.714 84.6779 104.595 84.6192C104.476 84.5605 104.342 84.5402 104.211 84.5614C104.08 84.5825 103.959 84.6438 103.865 84.7369C103.771 84.83 103.708 84.9501 103.686 85.0805C103.632 84.9298 103.523 84.8047 103.382 84.7304C103.24 84.6561 103.075 84.6379 102.92 84.6796C102.766 84.7212 102.633 84.8196 102.547 84.955C102.462 85.0905 102.431 85.2531 102.461 85.4104C102.977 87.7678 103.293 90.1641 103.408 92.5742Z" fill="#101418"/>
    <path d="M61.9545 11.6416L63.184 11.971C65.1805 12.6466 67.2648 13.0277 69.371 13.1023L69.8936 13.2423C70.754 13.4748 71.4907 14.032 71.948 14.7964C71.5367 16.3315 71.2329 17.8954 70.9599 19.4675C70.0044 22.8734 69.6724 26.4241 69.98 29.9486C69.9901 30.0577 70.0264 30.1629 70.0858 30.2551C70.1452 30.3473 70.2259 30.424 70.3211 30.4785C70.4163 30.5331 70.5232 30.5639 70.6329 30.5685C70.7425 30.5731 70.8516 30.5513 70.951 30.5049C71.0193 30.6071 71.1151 30.6879 71.2274 30.738C71.3396 30.7882 71.4637 30.8056 71.5854 30.7884C71.7071 30.7711 71.8215 30.7198 71.9152 30.6405C72.009 30.5611 72.0784 30.4569 72.1154 30.3398C72.7928 26.951 73.1741 23.4994 73.6322 20.0684C74.0245 18.0511 74.4516 16.0267 74.9709 14.027C76.8546 14.3969 78.7569 14.665 80.6694 14.8299L82.0578 15.1197C82.1562 15.1475 82.2601 15.15 82.3597 15.1268C82.4593 15.1037 82.5514 15.0556 82.6274 14.9872C82.7033 14.9188 82.7606 14.8322 82.7939 14.7356C82.8272 14.639 82.8354 14.5356 82.8178 14.4349C83.0276 14.4005 83.2241 14.31 83.3864 14.173C83.5488 14.036 83.671 13.8576 83.74 13.6568C83.809 13.4559 83.8223 13.2402 83.7784 13.0323C83.7345 12.8245 83.6352 12.6324 83.4908 12.4764L83.0051 12.4449C82.9678 12.3907 82.9198 12.3447 82.8639 12.3099C82.808 12.2752 82.7455 12.2523 82.6804 12.2428C76.1031 10.9082 69.5683 9.10779 62.8081 9.50107C62.6562 9.51071 62.514 9.57874 62.4113 9.6909C62.281 9.75244 62.1736 9.85353 62.1043 9.97973C62.035 10.1059 62.0073 10.2508 62.0253 10.3937C61.3755 10.4828 61.3244 11.4727 61.9545 11.6416Z" fill="#101418"/>
    <path d="M85.0449 16.759L84.3399 16.6853C83.6851 16.6086 83.511 17.5655 84.0232 17.8673L84.223 17.9208C84.1207 18.0093 84.0531 18.131 84.0321 18.2645C84.0321 18.2645 84.0033 18.372 83.9909 18.418C83.8424 19.4641 83.7287 20.5031 83.614 21.6076C82.7773 24.9093 82.2118 28.2739 81.9232 31.6679C81.7765 31.6766 81.6378 31.737 81.5316 31.8383C81.4254 31.9397 81.3587 32.0754 81.3433 32.2213C81.3279 32.3673 81.3649 32.514 81.4476 32.6353C81.5303 32.7566 81.6534 32.8447 81.795 32.8839C82.2714 33.0116 82.7325 33.1351 83.2089 33.2628C83.2401 33.3428 83.291 33.4136 83.3569 33.4686C83.4228 33.5237 83.5015 33.5612 83.5858 33.5777C84.8307 33.9112 86.0972 34.1025 87.3638 34.2938C88.9891 34.6509 90.6392 34.8841 92.2998 34.9912C92.3861 35.0017 92.4736 34.9913 92.555 34.9609L92.8931 35.0515C92.9866 35.0636 93.0816 35.0477 93.1661 35.006C93.2506 34.9642 93.3208 34.8983 93.3678 34.8167C93.4705 34.7496 93.5545 34.6577 93.6123 34.5495C93.6701 34.4414 93.6997 34.3204 93.6984 34.1978L94.9251 34.2304C95.0734 34.2229 95.2144 34.1639 95.3237 34.0635C95.433 33.9632 95.5036 33.8277 95.5235 33.6807C95.5433 33.5337 95.5111 33.3844 95.4323 33.2586C95.3536 33.1328 95.2333 33.0384 95.0922 32.9918C91.7329 32.1955 88.3224 31.6334 84.8853 31.3099C85.0087 30.8493 84.9743 30.363 85.0362 29.886C85.1581 28.8163 85.3261 27.759 85.5054 26.7212C85.7679 26.8405 86.0367 26.9455 86.3106 27.0356C87.8162 27.7794 89.4962 28.0987 91.1696 27.9592C91.3298 27.9493 91.48 27.8777 91.5884 27.7595C91.6969 27.6413 91.7553 27.4857 91.7512 27.3253C91.8415 27.2952 91.9232 27.2437 91.9891 27.1752C92.0909 27.1122 92.1716 27.0204 92.2211 26.9115C92.2706 26.8026 92.2866 26.6815 92.267 26.5635C92.2475 26.4454 92.1933 26.3358 92.1113 26.2486C92.0294 26.1613 91.9233 26.1003 91.8067 26.0733L88.9942 25.3197C88.487 25.1838 87.9798 25.0479 87.4573 24.9079L86.5505 24.6649C86.4069 24.637 86.2581 24.6546 86.1251 24.7155L85.8639 24.6455C86.0531 23.9393 86.1081 23.1808 86.2204 22.4541C86.3328 21.7274 86.7181 20.5966 86.969 19.6603C87.0871 19.6436 87.1978 19.5933 87.2879 19.5154C90.5519 20.7355 94.0695 20.3947 97.5661 20.6241C98.1943 20.6773 98.3908 19.7592 97.8828 19.4421C97.8596 19.3364 97.8076 19.2391 97.7327 19.161C97.6577 19.0828 97.5626 19.0269 97.4579 18.9992C97.5191 18.9029 97.5546 18.7925 97.5609 18.6785C97.5672 18.5646 97.5442 18.4509 97.494 18.3483C97.4439 18.2458 97.3682 18.1577 97.2743 18.0927C97.1804 18.0276 97.0714 17.9877 96.9576 17.9767L96.0753 17.8884C96.0082 17.8814 95.9404 17.8878 95.8758 17.9072C95.8113 17.9266 95.7512 17.9586 95.6991 18.0015C94.8618 17.991 94.0594 17.9734 93.2232 17.8974C92.387 17.8214 91.84 17.5268 91.1114 17.4796L89.3818 17.0491C88.346 16.6729 87.3256 16.3007 86.2775 15.9705C86.1762 15.9396 86.0685 15.9366 85.9657 15.9618C85.8629 15.9869 85.7688 16.0392 85.6933 16.1133C85.6178 16.1874 85.5638 16.2805 85.5368 16.3827C85.5098 16.4849 85.5109 16.5926 85.54 16.6943C85.461 16.6522 85.3708 16.6358 85.282 16.6474C85.1933 16.659 85.1104 16.6981 85.0449 16.759Z" fill="#101418"/>
    <path d="M115.802 35.2504C116.011 32.7656 115.843 30.2634 115.304 27.8282C115.184 26.4306 114.999 25.0318 114.783 23.6248C114.753 23.472 114.665 23.3366 114.538 23.2467L114.571 23.1239C114.557 22.9873 114.501 22.8585 114.411 22.7548C114.321 22.6512 114.201 22.5778 114.067 22.5447L114.048 22.3092C114.044 22.2229 114.022 22.1385 113.983 22.0613C113.975 21.9276 113.926 21.7997 113.841 21.6958C113.756 21.5919 113.641 21.5172 113.512 21.4825C113.382 21.4478 113.245 21.4549 113.12 21.5026C112.995 21.5503 112.888 21.6363 112.815 21.7483C112.622 21.6725 112.412 21.651 112.208 21.6862C112.004 21.7215 111.813 21.8122 111.657 21.9483C111.571 21.9012 111.477 21.8723 111.379 21.8633C111.281 21.8543 111.183 21.8654 111.09 21.896C110.997 21.9266 110.911 21.976 110.838 22.0411C110.764 22.1061 110.705 22.1856 110.664 22.2744C110.565 22.6428 110.363 22.9671 110.207 23.3037C110.117 23.3424 110.036 23.4006 109.971 23.4741C109.905 23.5477 109.857 23.6347 109.83 23.729C109.665 24.343 109.439 24.9406 109.152 25.5217C108.321 27.2076 107.437 28.8464 106.648 30.5601C106.392 31.1494 106.135 31.7387 105.909 32.3363C105.683 32.9338 105.587 33.1057 105.423 33.473C104.812 34.7887 104.289 36.1437 103.859 37.5289C103.833 37.5973 103.823 37.6705 103.829 37.7433C103.835 37.8161 103.857 37.8866 103.894 37.9497C103.828 38.1954 103.763 38.441 103.693 38.7019C103.516 39.362 104.507 39.8416 104.846 39.192L104.887 39.0385C104.992 39.0438 105.096 39.0167 105.184 38.961C105.273 38.9052 105.342 38.8235 105.383 38.727C105.448 38.4814 105.602 38.2758 105.699 38.0384C105.838 38.0554 105.979 38.019 106.093 37.9366C106.207 37.8541 106.285 37.7318 106.312 37.594C106.534 36.7651 106.756 35.9361 106.974 35.1226C107.089 34.6927 107.374 34.3082 107.581 33.9031C109.049 34.6745 110.682 35.0782 112.339 35.0794C112.419 36.3183 112.48 37.5684 112.474 38.8174C112.47 38.9653 112.524 39.1091 112.623 39.2187C112.723 39.3282 112.861 39.3949 113.009 39.4048C112.964 39.5737 113.015 39.7519 113.031 39.9372C113.039 40.0864 113.099 40.228 113.201 40.3371C113.304 40.4463 113.441 40.5161 113.589 40.5343C113.738 40.5525 113.888 40.5179 114.013 40.4366C114.139 40.3552 114.231 40.2324 114.275 40.0896C114.341 39.844 114.407 39.5984 114.476 39.3374C114.56 39.282 114.628 39.2079 114.677 39.121C114.726 39.0341 114.754 38.9369 114.759 38.8372C114.834 38.2486 114.89 37.6713 114.935 37.0745C114.979 36.4777 115.136 36.3223 115.112 35.921C115.202 35.9263 115.293 35.9128 115.378 35.8813C115.463 35.8498 115.54 35.8009 115.605 35.7378C115.67 35.6747 115.721 35.5988 115.755 35.5149C115.789 35.4309 115.805 35.3409 115.802 35.2504ZM111.726 32.0194C110.881 31.7929 109.924 31.7996 109.118 31.4852L108.965 31.444C110.179 29.1863 111.332 26.9122 112.443 24.6103C112.204 27.1426 112.182 29.6909 112.379 32.2272L111.726 32.0194Z" fill="#101418"/>
    </g>
    <defs>
    <clipPath id="clip0_9_444">
    <rect width="126" height="145" fill="white" transform="translate(37.9111) rotate(15)"/>
    </clipPath>
    </defs>
</svg>