<svg width="25" height="26" viewBox="0 0 25 26" fill="none" xmlns="http://www.w3.org/2000/svg">
<path fill-rule="evenodd" clip-rule="evenodd" d="M9.28625 9.0597H13.9287V11.4647C14.5975 10.0815 16.3125 8.8387 18.8888 8.8387C23.8275 8.8387 25 11.5921 25 16.6439V26H20V17.7944C20 14.9175 19.3313 13.2951 17.6287 13.2951C15.2675 13.2951 14.2863 15.0436 14.2863 17.7931V26H9.28625V9.0597ZM0.7125 25.779H5.7125V8.8387H0.7125V25.779ZM6.42875 3.315C6.42894 3.75086 6.34582 4.18241 6.18423 4.58456C6.02265 4.98672 5.78581 5.35147 5.4875 5.6576C4.883 6.28241 4.06476 6.63215 3.2125 6.63C2.36174 6.62941 1.54539 6.28056 0.94 5.6589C0.642764 5.35173 0.406732 4.98657 0.24543 4.58436C0.0841268 4.18215 0.000723915 3.75079 0 3.315C0 2.4349 0.3375 1.5925 0.94125 0.9711C1.54611 0.348606 2.3628 -0.000388974 3.21375 3.25344e-07C4.06625 3.25344e-07 4.88375 0.3497 5.4875 0.9711C6.09 1.5925 6.42875 2.4349 6.42875 3.315Z" fill="#C6DBCE"/>
</svg>
