<svg width="403" height="139" viewBox="0 0 403 139" fill="none" xmlns="http://www.w3.org/2000/svg">
    <path d="M0.775391 138.223L44.253 115.992C48.2207 113.964 52.7523 113.318 57.1287 114.158L90.1902 120.505C96.7053 121.756 103.417 119.695 108.106 115.003L122.48 100.623C124.615 98.4871 127.205 96.8624 130.058 95.8708L139.641 92.5394C146.546 90.139 154.21 91.697 159.63 96.6028L184.301 118.935C193.211 127 207.17 125.442 214.083 115.611L243.502 73.7718C248.213 67.0729 256.531 63.9224 264.497 65.82L288.355 71.5031C296.315 73.3992 304.627 70.2556 309.339 63.5667L346.136 11.3394C349.69 6.29601 355.372 3.1748 361.534 2.88121L402 0.953369" stroke="#CE2A96"/>
</svg>