<svg width="402" height="139" viewBox="0 0 402 139" fill="none" xmlns="http://www.w3.org/2000/svg">
    <path d="M1.03906 138.019L38.5086 111.753C45.0943 107.137 53.8045 106.914 60.6173 111.189L81.4015 124.228C91.2376 130.398 104.244 126.924 109.692 116.67L123.803 90.1111C124.415 88.9592 124.913 87.7502 125.29 86.5014L136.624 48.9166C141.662 32.2104 164.182 29.5166 173.018 44.5631L181.186 58.4707C189.267 72.2319 209.419 71.4505 216.41 57.1048L237.029 14.7985C243.316 1.89826 260.741 -0.378367 270.131 10.4736L287.893 31.0007C294.945 39.1501 307.186 40.2469 315.574 33.481L346.043 8.90469C349.123 6.41987 352.872 4.90493 356.814 4.55163L401 0.591588" stroke="#A7ABFF"/>
</svg>