<svg width="112" height="16" viewBox="0 0 112 16" fill="none" xmlns="http://www.w3.org/2000/svg">
<path d="M0.9 15H14.1C18.32 15 20.44 13.66 20.44 10.96V10.7C20.44 10.12 20.32 9.6 20.08 9.16C19.86 8.7 19.54 8.34 19.16 8.08C18.78 7.84 18.44 7.64 18.12 7.5C17.8 7.36 17.48 7.24 17.14 7.18C17.38 7.12 17.62 7.02 17.84 6.9C18.08 6.8 18.34 6.64 18.62 6.42C18.92 6.22 19.14 5.94 19.32 5.6C19.48 5.26 19.58 4.86 19.58 4.44V4.18C19.58 3.24 19.16 2.46 18.3 1.86C17.46 1.26 16.02 0.979999 13.98 0.979999H0.9V15ZM5.68 3.94H13.16C14.28 3.94 14.82 4.3 14.82 5.04V5.08C14.82 5.84 14.28 6.22 13.16 6.22H5.68V3.94ZM13.58 9.2C14.84 9.2 15.46 9.62 15.46 10.5V10.56C15.46 10.94 15.32 11.26 15.06 11.52C14.78 11.8 14.28 11.94 13.58 11.94H5.68V9.2H13.58ZM38.5342 11.28V11.26H34.0342C34.0342 11.34 33.9942 11.42 33.9342 11.5C33.8942 11.58 33.7742 11.68 33.6342 11.82C33.4742 11.94 33.2742 12.06 33.0142 12.16C32.7742 12.28 32.4342 12.36 31.9942 12.44C31.5542 12.52 31.0342 12.56 30.4742 12.56H30.4542C28.1542 12.56 26.8542 11.9 26.5542 10.58H38.5942V9.9C38.5942 6.26 36.0542 4.46 30.9542 4.46H29.7142C28.2742 4.46 27.0542 4.6 26.0142 4.88C24.9942 5.16 24.1942 5.54 23.6542 6.04C23.0942 6.54 22.6942 7.06 22.4542 7.64C22.2142 8.22 22.0942 8.84 22.0942 9.54V9.94C22.0942 10.64 22.2142 11.3 22.4742 11.88C22.7542 12.46 23.1742 13 23.7342 13.5C24.3142 14 25.1142 14.4 26.1542 14.68C27.1942 14.96 28.4142 15.1 29.8342 15.1H30.9942C32.2542 15.1 33.3542 15.02 34.2942 14.84C35.2542 14.66 35.9742 14.42 36.4942 14.16C37.0142 13.88 37.4342 13.58 37.7742 13.2C38.0942 12.84 38.2942 12.52 38.3942 12.2C38.4942 11.9 38.5342 11.6 38.5342 11.28ZM30.3142 6.8C32.4542 6.8 33.6742 7.36 33.9942 8.5H26.6342C27.0142 7.36 28.2342 6.8 30.2942 6.8H30.3142ZM54.4689 14.96V12.16H46.6089L54.4089 7.22V4.88H40.6489V7.6H48.1089L40.6489 12.52V14.96H54.4689ZM71.7483 14.86V4.76H67.1883V9.52C67.1883 10.34 66.8883 11.02 66.3083 11.52C65.7083 12.02 64.9083 12.26 63.9283 12.26C62.9883 12.26 62.2683 12.04 61.8083 11.58C61.3283 11.14 61.1083 10.52 61.1083 9.74V4.76H56.5083V11.04C56.5083 12.12 56.9283 13.06 57.8083 13.86C58.6883 14.68 59.9883 15.08 61.7283 15.08H61.8883C62.4883 15.08 63.0683 15.02 63.6283 14.9C64.1883 14.78 64.6483 14.66 64.9683 14.54C65.3083 14.42 65.6683 14.24 66.0483 13.98C66.4483 13.74 66.6883 13.58 66.7683 13.5C66.8483 13.44 67.0083 13.3 67.2283 13.1V14.86H71.7483ZM73.313 8V10.72H78.833V8H73.313Z" fill="#121416"/>
<path d="M88.855 4.36C88.055 4.36 87.355 4.5 86.695 4.78C86.055 5.06 85.595 5.34 85.315 5.6C85.055 5.86 84.835 6.14 84.655 6.4V4.58H80.395V14.9H84.675V9.58C84.675 8.86 84.875 8.28 85.275 7.8C85.675 7.32 86.475 6.86 86.995 6.8C87.515 6.74 93.595 6.74 93.595 6.74V4.36H88.855ZM111.464 11.28V11.26H106.964C106.964 11.34 106.924 11.42 106.864 11.5C106.824 11.58 106.704 11.68 106.564 11.82C106.404 11.94 106.204 12.06 105.944 12.16C105.704 12.28 105.364 12.36 104.924 12.44C104.484 12.52 103.964 12.56 103.404 12.56H103.384C101.084 12.56 99.7839 11.9 99.4839 10.58H111.524V9.9C111.524 6.26 108.984 4.46 103.884 4.46H102.644C101.204 4.46 99.9839 4.6 98.9439 4.88C97.9239 5.16 97.1239 5.54 96.5839 6.04C96.0239 6.54 95.6239 7.06 95.3839 7.64C95.1439 8.22 95.0239 8.84 95.0239 9.54V9.94C95.0239 10.64 95.1439 11.3 95.4039 11.88C95.6839 12.46 96.1039 13 96.6639 13.5C97.2439 14 98.0439 14.4 99.0839 14.68C100.124 14.96 101.344 15.1 102.764 15.1H103.924C105.184 15.1 106.284 15.02 107.224 14.84C108.184 14.66 108.904 14.42 109.424 14.16C109.944 13.88 110.364 13.58 110.704 13.2C111.024 12.84 111.224 12.52 111.324 12.2C111.424 11.9 111.464 11.6 111.464 11.28ZM103.244 6.8C105.384 6.8 106.604 7.36 106.924 8.5H99.5639C99.9439 7.36 101.164 6.8 103.224 6.8H103.244Z" fill="#84B898"/>
</svg>
