<svg width="22" height="29" viewBox="0 0 22 29" fill="none" xmlns="http://www.w3.org/2000/svg">
<path d="M0.000101032 10.4026C0.000101032 9.14882 0.21616 7.96433 0.641923 6.8588C1.04871 5.78502 1.65308 4.7995 2.42282 3.95477C3.191 3.12113 4.07006 2.40026 5.0346 1.81301C6.0242 1.2057 7.09557 0.747523 8.21511 0.452854C9.34817 0.151044 10.5149 -0.00116254 11.6864 6.68522e-06C13.4959 6.68522e-06 15.1798 0.388392 16.7415 1.16194C18.2828 1.92138 19.5947 3.08686 20.54 4.53654C21.5155 6.01112 22 7.67908 22 9.53882C22 10.654 21.892 11.745 21.6711 12.8119C21.4543 13.8782 21.1097 14.9135 20.6449 15.8948C20.2018 16.8447 19.6226 17.7229 18.9259 18.5007C18.2258 19.2661 17.3778 19.8772 16.4349 20.296C15.4112 20.7511 14.3037 20.9802 13.1861 20.968C12.4092 20.968 11.6339 20.7827 10.8682 20.4104C10.1025 20.0397 9.55277 19.5305 9.22233 18.8778C9.10636 19.3306 8.94749 19.9849 8.7362 20.8407C8.53285 21.6948 8.39622 22.246 8.33585 22.4958C8.27231 22.7439 8.15474 23.1581 7.98317 23.7318C7.86681 24.1562 7.71754 24.5706 7.53675 24.9711L6.99025 26.0573C6.75391 26.5234 6.48969 26.9744 6.19909 27.4078C5.91154 27.83 5.55568 28.3344 5.13151 28.9146L4.89479 29L4.73751 28.826C4.56753 27.0001 4.48015 25.9074 4.48015 25.5464C4.48015 24.478 4.60565 23.279 4.85349 21.9478C5.09655 20.6183 5.48101 18.9471 5.99733 16.9375C6.51365 14.9295 6.80914 13.7482 6.88857 13.3985C6.52477 12.6459 6.34048 11.6629 6.34048 10.4542C6.34048 9.48886 6.63756 8.58478 7.23331 7.73387C7.83065 6.8862 8.58527 6.46236 9.50035 6.46236C10.201 6.46236 10.7443 6.69764 11.1335 7.16983C11.5243 7.6404 11.715 8.23346 11.715 8.95705C11.715 9.72415 11.4639 10.8345 10.9587 12.2865C10.4535 13.7402 10.2025 14.8247 10.2025 15.5451C10.2025 16.2751 10.4599 16.8859 10.9746 17.3645C11.4826 17.8434 12.1544 18.1029 12.8477 18.0881C13.4768 18.0881 14.0598 17.9431 14.6016 17.6514C15.1348 17.3683 15.5964 16.964 15.9503 16.4701C16.7212 15.3973 17.2707 14.1777 17.566 12.8844C17.7185 12.2043 17.8361 11.5581 17.9092 10.9505C17.987 10.3398 18.0204 9.76283 18.0204 9.2149C18.0204 7.20528 17.3913 5.63885 16.141 4.5172C14.8843 3.39556 13.248 2.83796 11.2352 2.83796C8.9459 2.83796 7.03155 3.58895 5.49849 5.09575C3.96383 6.59773 3.19174 8.50742 3.19174 10.8232C3.19174 11.3341 3.26799 11.8272 3.41256 12.3043C3.55396 12.7797 3.70806 13.1584 3.87487 13.4388C4.04009 13.7144 4.19578 13.9835 4.33717 14.2317C4.48015 14.4799 4.55482 14.6571 4.55482 14.7635C4.55482 15.089 4.47062 15.5129 4.30063 16.0366C4.12429 16.5604 3.91617 16.8215 3.66516 16.8215C3.64133 16.8215 3.54283 16.8037 3.37126 16.7667C2.77704 16.5867 2.24041 16.2503 1.81595 15.7917C1.36546 15.3163 1.00995 14.7571 0.769017 14.1447C0.528775 13.5344 0.341657 12.9041 0.209805 12.2607C0.067352 11.652 -0.00304632 11.0282 0.000101032 10.4026Z" fill="#C6DBCE"/>
</svg>
