<svg width="63" height="63" viewBox="0 0 63 63" fill="none" xmlns="http://www.w3.org/2000/svg">
    <path d="M15.5013 34.4221L14.2931 33.471L12.8904 32.841C12.834 32.8156 12.7211 32.7609 12.5 32.6359L12.5 14.0715C14.8211 14.6645 17.1023 15.4232 19.3255 16.3441C25.4525 18.8819 31.0195 22.6017 35.7089 27.2911C40.3982 31.9805 44.1181 37.5475 46.6559 43.6745C47.5768 45.8977 48.3355 48.1788 48.9285 50.5L30.3455 50.5C30.3054 50.429 30.2809 50.3835 30.2684 50.3599C28.2509 45.5476 24.8311 42.1443 23.0941 40.4156C23.0044 40.3263 22.9191 40.2415 22.8388 40.1612C21.124 38.4464 19.4217 37.2049 18.2064 36.3499C17.7618 36.0371 17.4044 35.7896 17.0994 35.5783C16.438 35.1203 16.0233 34.833 15.5013 34.4221Z" stroke="#84B898" stroke-width="25"/>
</svg>